<svg viewBox="0 0 182 34" fill="none" xmlns="http://www.w3.org/2000/svg">
  <path
    d="M17.7768 26H12.9528V15.416C12.9528 13.904 12.6888 12.8 12.1608 12.104C11.6328 11.408 10.9008 11.06 9.96483 11.06C9.31683 11.06 8.65683 11.228 7.98483 11.564C7.33683 11.9 6.74883 12.368 6.22083 12.968C5.69283 13.544 5.30883 14.216 5.06883 14.984V26H0.244828V7.136H4.60083V10.628C5.29683 9.452 6.30483 8.528 7.62483 7.856C8.94483 7.16 10.4328 6.812 12.0888 6.812C13.2648 6.812 14.2248 7.028 14.9688 7.46C15.7128 7.868 16.2888 8.432 16.6968 9.152C17.1048 9.848 17.3808 10.64 17.5248 11.528C17.6928 12.416 17.7768 13.316 17.7768 14.228V26ZM30.7194 26.36C28.6794 26.36 26.9154 25.916 25.4274 25.028C23.9634 24.14 22.8234 22.964 22.0074 21.5C21.1914 20.012 20.7834 18.404 20.7834 16.676C20.7834 14.9 21.1794 13.268 21.9714 11.78C22.7874 10.268 23.9394 9.068 25.4274 8.18C26.9154 7.268 28.6914 6.812 30.7554 6.812C32.8194 6.812 34.5834 7.268 36.0474 8.18C37.5114 9.068 38.6274 10.256 39.3954 11.744C40.1874 13.208 40.5834 14.792 40.5834 16.496C40.5834 17.12 40.5474 17.66 40.4754 18.116H25.8954C26.0154 19.58 26.5554 20.732 27.5154 21.572C28.4994 22.412 29.6274 22.832 30.8994 22.832C31.8594 22.832 32.7594 22.604 33.5994 22.148C34.4634 21.668 35.0514 21.044 35.3634 20.276L39.5034 21.428C38.8074 22.868 37.6914 24.056 36.1554 24.992C34.6194 25.904 32.8074 26.36 30.7194 26.36ZM25.7874 15.056H35.6514C35.5074 13.64 34.9674 12.5 34.0314 11.636C33.1194 10.748 32.0034 10.304 30.6834 10.304C29.3874 10.304 28.2714 10.748 27.3354 11.636C26.4234 12.5 25.9074 13.64 25.7874 15.056ZM66.3948 7.136H70.9668L63.0828 26H59.0508L55.8828 17.9L52.7868 26H48.7188L40.8708 7.136H45.4068L51.0228 21.392L53.2188 15.236L49.9428 7.172H53.9388L55.8828 12.932L57.8628 7.172H61.8588L58.5828 15.236L60.8148 21.392L66.3948 7.136Z"
    fill="#1121E3" />
  <path
    d="M74.346 26V0.439999H84.966C86.406 0.439999 87.69 0.835999 88.818 1.628C89.946 2.396 90.822 3.392 91.446 4.616C92.094 5.816 92.418 7.064 92.418 8.36C92.418 9.632 92.166 10.82 91.662 11.924C91.158 13.028 90.45 13.952 89.538 14.696C88.65 15.44 87.606 15.896 86.406 16.064L92.778 26H90.654L84.462 16.352H76.182V26H74.346ZM76.182 14.66H85.146C86.25 14.66 87.21 14.36 88.026 13.76C88.842 13.16 89.466 12.38 89.898 11.42C90.354 10.46 90.582 9.44 90.582 8.36C90.582 7.256 90.318 6.236 89.79 5.3C89.286 4.34 88.602 3.572 87.738 2.996C86.874 2.396 85.926 2.096 84.894 2.096H76.182V14.66ZM104.578 26.36C102.826 26.36 101.242 25.916 99.8265 25.028C98.4345 24.14 97.3305 22.952 96.5145 21.464C95.7225 19.976 95.3265 18.344 95.3265 16.568C95.3265 14.816 95.7225 13.22 96.5145 11.78C97.3065 10.316 98.3985 9.152 99.7905 8.288C101.182 7.4 102.742 6.956 104.47 6.956C106.246 6.956 107.818 7.4 109.186 8.288C110.578 9.152 111.67 10.316 112.462 11.78C113.254 13.244 113.65 14.84 113.65 16.568C113.65 16.856 113.638 17.12 113.614 17.36H97.1985C97.2945 18.8 97.6905 20.096 98.3865 21.248C99.0825 22.376 99.9705 23.276 101.05 23.948C102.154 24.596 103.354 24.92 104.65 24.92C105.946 24.92 107.17 24.584 108.322 23.912C109.474 23.24 110.278 22.376 110.734 21.32L112.318 21.752C111.958 22.64 111.382 23.432 110.59 24.128C109.822 24.824 108.91 25.376 107.854 25.784C106.822 26.168 105.73 26.36 104.578 26.36ZM97.1265 15.956H111.922C111.826 14.492 111.43 13.196 110.734 12.068C110.062 10.916 109.186 10.028 108.106 9.404C107.026 8.756 105.826 8.432 104.506 8.432C103.186 8.432 101.986 8.756 100.906 9.404C99.8265 10.052 98.9505 10.952 98.2785 12.104C97.6065 13.232 97.2225 14.516 97.1265 15.956ZM126.755 26.36C125.147 26.36 123.707 25.94 122.435 25.1C121.187 24.236 120.179 23.192 119.411 21.968V33.668H117.611V7.28H119.267V11.024C120.035 9.824 121.055 8.852 122.327 8.108C123.599 7.34 124.943 6.956 126.359 6.956C127.655 6.956 128.843 7.232 129.923 7.784C131.027 8.312 131.975 9.044 132.767 9.98C133.583 10.892 134.207 11.924 134.639 13.076C135.095 14.228 135.323 15.428 135.323 16.676C135.323 18.404 134.963 20.012 134.243 21.5C133.523 22.964 132.515 24.14 131.219 25.028C129.947 25.916 128.459 26.36 126.755 26.36ZM126.323 24.74C127.763 24.74 129.023 24.356 130.103 23.588C131.183 22.796 132.011 21.788 132.587 20.564C133.187 19.316 133.487 18.02 133.487 16.676C133.487 15.236 133.151 13.904 132.479 12.68C131.831 11.456 130.931 10.472 129.779 9.728C128.651 8.96 127.391 8.576 125.999 8.576C125.351 8.576 124.655 8.72 123.911 9.008C123.191 9.272 122.495 9.644 121.823 10.124C121.175 10.58 120.623 11.108 120.167 11.708C119.735 12.308 119.483 12.944 119.411 13.616V19.772C119.819 20.684 120.371 21.524 121.067 22.292C121.787 23.036 122.591 23.636 123.479 24.092C124.391 24.524 125.339 24.74 126.323 24.74ZM147.502 26.36C145.75 26.36 144.178 25.916 142.786 25.028C141.418 24.14 140.338 22.964 139.546 21.5C138.754 20.036 138.358 18.428 138.358 16.676C138.358 15.356 138.586 14.12 139.042 12.968C139.498 11.792 140.146 10.76 140.986 9.872C141.826 8.96 142.798 8.252 143.902 7.748C145.006 7.22 146.206 6.956 147.502 6.956C148.798 6.956 149.998 7.22 151.102 7.748C152.206 8.252 153.166 8.96 153.982 9.872C154.822 10.76 155.47 11.792 155.926 12.968C156.406 14.12 156.646 15.356 156.646 16.676C156.646 18.428 156.238 20.036 155.422 21.5C154.63 22.964 153.538 24.14 152.146 25.028C150.778 25.916 149.23 26.36 147.502 26.36ZM140.158 16.748C140.158 18.212 140.482 19.556 141.13 20.78C141.802 21.98 142.69 22.94 143.794 23.66C144.898 24.38 146.122 24.74 147.466 24.74C148.81 24.74 150.034 24.38 151.138 23.66C152.266 22.916 153.154 21.932 153.802 20.708C154.474 19.484 154.81 18.128 154.81 16.64C154.81 15.176 154.474 13.832 153.802 12.608C153.154 11.384 152.266 10.412 151.138 9.692C150.034 8.948 148.822 8.576 147.502 8.576C146.158 8.576 144.934 8.948 143.83 9.692C142.726 10.436 141.838 11.432 141.166 12.68C140.494 13.904 140.158 15.26 140.158 16.748ZM169.814 8.9C168.134 8.948 166.658 9.452 165.386 10.412C164.138 11.348 163.262 12.644 162.758 14.3V26H160.958V7.28H162.686V11.888C163.334 10.592 164.198 9.524 165.278 8.684C166.358 7.844 167.498 7.364 168.698 7.244C168.938 7.244 169.142 7.244 169.31 7.244C169.502 7.22 169.67 7.208 169.814 7.208V8.9ZM181.58 25.1C181.412 25.196 180.968 25.412 180.248 25.748C179.528 26.06 178.664 26.216 177.656 26.216C176.672 26.216 175.808 25.928 175.064 25.352C174.344 24.776 173.984 23.948 173.984 22.868V8.756H171.356V7.28H173.984V0.872H175.784V7.28H180.14V8.756H175.784V22.436C175.832 23.132 176.084 23.66 176.54 24.02C176.996 24.356 177.524 24.524 178.124 24.524C178.868 24.524 179.516 24.404 180.068 24.164C180.62 23.9 180.944 23.732 181.04 23.66L181.58 25.1Z"
    fill="#080F13" />
</svg>
